# xmcd CD database file
#
# Track frame offsets:
#	150
#	16194
#	32655
#
# Disc length: 611 seconds
#
# Revision: 2
# Processed by: cddbd v1.4PL0 Copyright (c) Steve Scherf et al.
# Submitted via: CDex 1.50
#
DISCID=16026103
DTITLE=Jools Holland - Bell's: Jools and Friends
DYEAR=2003
DGENRE=Blues
TTITLE0=Tuxedo Junction
TTITLE1=Together we are strong
TTITLE2=Anglegrinder Blues
EXTD=YEAR: 2003
EXTT0=
EXTT1=
EXTT2=
PLAYORDER=
